<svg id="Слой_1" data-name="Слой 1" xmlns="http://www.w3.org/2000/svg" xmlns:xlink="http://www.w3.org/1999/xlink" viewBox="0 0 288.75 162.65"><defs><style>.cls-1{fill:url(#Безымянный_градиент_40);}.cls-2{fill:url(#Безымянный_градиент_40-2);}.cls-3{fill:#36a9e1;stroke:#36a9e1;stroke-miterlimit:10;stroke-width:0.6px;}</style><linearGradient id="Безымянный_градиент_40" x1="230.47" y1="1.92" x2="230.47" y2="160.59" gradientUnits="userSpaceOnUse"><stop offset="0.28" stop-color="#00b6ed"/><stop offset="1" stop-color="#21679b"/></linearGradient><linearGradient id="Безымянный_градиент_40-2" x1="58.33" y1="1.92" x2="58.33" y2="160.59" xlink:href="#Безымянный_градиент_40"/></defs><path class="cls-1" d="M174.71,82.49a2.72,2.72,0,0,0-1.34.34c-1.8.89-1.54,4.27.6,4.57a44.32,44.32,0,0,0,4.61.22l7.83.27,6.22.2c.69,0,1.38,0,2.07.09.53,0,0,0,0,0,.19,0,.39.07.58.12a9.77,9.77,0,0,1,1.06.29l.48.18-.26-.11.33.16c.33.17.65.34,1,.53l.43.29c.11.07.61.44.3.2s.15.13.22.19.32.27.47.42.57.55.84.84.51.59.76.88c.4.47-.19-.27.07.09.16.21.31.42.46.64a30.78,30.78,0,0,1,2.75,4.92c.09.22.19.43.28.65l.17.38s-.16-.39-.06-.12c.2.48.4,1,.59,1.47.39,1,.75,2.06,1.08,3.1,3,9.38,4.56,19.22,6.19,28.92.77,4.52,1.52,9,2.47,13.55A55.51,55.51,0,0,0,218,156.49c1,2.38,2.61,5,5.24,5.86s5-.87,6.39-3a30.62,30.62,0,0,0,3.34-8.68c1.07-4,1.88-8.1,2.65-12.18,1.71-9.05,3.1-18.19,5.34-27.13.47-1.88,1-3.76,1.6-5.6.26-.82.55-1.62.86-2.42l.21-.52s-.19.43,0,0,.33-.72.5-1.07a15.49,15.49,0,0,1,1-1.73c.18-.28.66-.82.16-.26.19-.22.36-.45.56-.65s.37-.3.52-.47c-.17.19-.52.32-.17.14l.35-.21c.5-.36-.56.19,0,0,.09,0,.2,0,.29-.08.36-.17-.66,0-.26,0,.62.1,1.31,0,1.94.07a14.9,14.9,0,0,1,1.71.39,4.65,4.65,0,0,1,1.19.59l.26.17c.31.22-.29-.26,0,0s.37.37.56.55c.44.41-.09-.19.14.16a6.49,6.49,0,0,1,.39.62c.11.18.2.37.3.56l.12.24c.26.53-.13-.33,0,0,.31.8.57,1.61.86,2.41.75,2,1.79,3.86,3.94,4.6a6,6,0,0,0,5.38-.82c4-2.65,6.82-7.1,9.64-10.85,3.06-4.06,6-8.28,10-11.69l.25-.2c.29-.24-.31.22,0,0l.57-.41a12.9,12.9,0,0,1,1.13-.67l.32-.16c-.07,0-.54.19-.13.06l.54-.18c.18,0,.36-.07.54-.12-.49.13-.26,0,.08,0,3.22,0,3.23-4.94,0-5-.12,0-.68,0-.26,0s-.18,0-.28-.07l-.62-.2c-.06,0-.33-.15,0,0s-.1,0-.17-.09c-.39-.21-.76-.43-1.13-.67l-.66-.47c.4.3-.18-.16-.32-.28a41.6,41.6,0,0,1-5.12-5.41c-3.31-4-6.36-8.56-9.87-12.7-2.48-2.92-6-6.75-10.26-5-2,.85-2.92,2.67-3.62,4.61-.28.78-.53,1.57-.84,2.34.25-.64-.06.09-.12.22s-.2.37-.3.56-.23.36-.35.54-.3.34.05-.06a3.47,3.47,0,0,1-.25.29c-.19.18-.37.37-.57.54.36-.31-.09.06-.25.16s-.45.26-.68.37c-.07,0-.43.17-.06,0l-.48.16a9.49,9.49,0,0,1-1.75.37,9.14,9.14,0,0,0-1.82.06c-.13,0,.63.19.25,0-.08,0-.21,0-.28-.07-.41-.35.57.38-.07-.05-.35-.24-.52-.5-.1,0-.17-.2-.41-.36-.59-.55s-.32-.39-.49-.57c.6.66-.08-.13-.23-.37a18.67,18.67,0,0,1-1-1.75c-.15-.31-.29-.63-.44-.94-.21-.47,0,0,0-.05l-.27-.67c-.31-.8-.59-1.61-.86-2.43-2.73-8.38-4.08-17.22-5.65-25.87-.8-4.44-1.6-8.88-2.56-13.29A69.87,69.87,0,0,0,231.45,7c-.91-2.39-2.09-5.2-4.46-6.49s-5.21-.11-6.86,1.93c-2,2.51-3.07,5.72-3.92,8.79-1.12,4-1.88,8.09-2.61,12.18-1.74,9.74-3.11,19.56-5.5,29.17-.56,2.27-1.19,4.52-1.91,6.74-.34,1-.7,2.08-1.09,3.1-.18.46-.36.91-.55,1.37s.16-.37,0,0c0,.1-.08.19-.13.29-.12.27-.24.55-.37.83a30.45,30.45,0,0,1-2.76,4.88l-.36.49c-.26.36.3-.33-.07.1s-.53.63-.81.93-.56.57-.85.84-1.11.89-.5.45a15.3,15.3,0,0,1-1.9,1.16c-.56.3.26-.07-.07,0l-.48.17a9.82,9.82,0,0,1-1.06.3l-.58.1c.41-.09.38,0,0,0-.82,0-1.64.07-2.46.1l-6.11.2L175.24,75a10.88,10.88,0,0,0-1.27.11c-2.13.3-2.41,3.67-.6,4.57a2.84,2.84,0,0,0,1.34.34c3.21-.09,3.22-5.09,0-5h-.08l1.26.34h0l-.59,4.57c-1.3.18-.31.08.11.06l3.53-.12,8-.27c3.17-.1,6.55.13,9.66-.56,7.66-1.7,11.52-10.15,13.87-16.81,3.22-9.15,4.77-18.86,6.38-28.39.79-4.67,1.55-9.34,2.47-14a70.39,70.39,0,0,1,2.82-10.81c.09-.23.56-1.33.22-.58.15-.31.28-.63.43-.94a16,16,0,0,1,.93-1.61c.43-.66-.25.21.14-.19.18-.2.36-.39.55-.58.5-.51-.37.15.07-.07a1.48,1.48,0,0,0,.27-.16c.38-.28,0,.14-.23.08.05,0,.22-.09.29-.09.36-.06,0,0,0,0s-.45,0-.05,0-.17,0-.33-.07c.25,0,.62.29.24,0s.07.13.22.17-.46-.47-.19-.14c.05.07.13.11.18.18.26.28.53.75.15.13.29.46.61.9.87,1.39.13.25.26.52.38.78s.15.32.22.48-.21-.53,0,0,.54,1.42.78,2.14c.54,1.67,1,3.37,1.42,5.07,1,4.22,1.84,8.49,2.63,12.76,1.65,9,3,18,5.43,26.78a41.1,41.1,0,0,0,3.69,9.72c1.37,2.37,3.38,4.52,6.28,4.68A12.24,12.24,0,0,0,255,66.59a11.75,11.75,0,0,0,3.35-5.41l.39-1.12.19-.54.12-.29c.1-.29-.3.55,0,.1l.49-.87c-.34.61,0,.1,0,0s.13-.12.15-.14c-.35.4-.34.25-.12.12.48-.28-.32.27,0,0s.87-.06.12-.06a2.26,2.26,0,0,0,.52,0c-.07,0-.59-.16-.11,0s.2.11-.07,0l.49.25.38.24c.37.23.38.29.21.14,3.71,3.16,6.13,6.94,9,10.72,3.21,4.24,6.45,8.77,10.79,11.94a9.7,9.7,0,0,0,5.49,2.07v-5c-4.6.09-8.31,4.21-11.08,7.44-3.53,4.12-6.77,8.85-10,12.81-.73.9-1.47,1.79-2.26,2.63-.33.34-.66.68-1,1l-.48.45c-.1.08-.7.57-.42.35l-.26.19-.44.27-.43.22c.58-.35.08-.15,0,0s-.18,0-.23,0,.67-.2.34,0c-.08,0-.75,0-.3,0s-.3,0-.29-.08c-.09.18-.53-.84.2.09,0-.06-.18-.09-.24-.13-.29-.2.42.41,0,0s0,.08,0,0c-.15-.32-.36-.62-.52-1,.21.43.1.24,0,0s-.13-.35-.19-.53c-.15-.43-.29-.86-.45-1.29a11.49,11.49,0,0,0-3.8-5.64,12.29,12.29,0,0,0-7.87-2.09,6.51,6.51,0,0,0-3.89,1.68c-2.22,1.91-3.44,5-4.42,7.63-3,8-4.29,16.7-5.81,25.09s-2.69,16.77-5.33,24.76c-.24.72-.52,1.41-.78,2.12-.15.41.26-.55,0,0-.06.14-.12.29-.19.43-.14.3-.28.59-.44.88a7.76,7.76,0,0,1-.4.69c-.17.28-.77.86-.13.25-.15.14-.29.32-.43.48s-.16.13-.21.2c-.26.34.52-.39.19-.14s-.9.48,0,.05c-.13.06-.76.31-.2.1.39-.15.25,0,.06,0-.51,0,.33-.06.31.06s-.93-.34-.28-.05-.12-.11-.26-.18c-.39-.19.07,0,.18.15-.06-.1-.24-.2-.32-.28s-.32-.34-.48-.51c-.31-.31-.05-.1.09.13-.09-.15-.2-.28-.29-.42a12.17,12.17,0,0,1-.89-1.57l-.24-.5c0-.09-.27-.63-.1-.22s-.05-.14-.1-.24l-.21-.57a48,48,0,0,1-1.51-5c-1.07-4.21-1.83-8.49-2.57-12.76-1.68-9.71-3.09-19.51-5.64-29-2-7.54-4.77-16.52-11.47-21.23-4.13-2.91-9.38-2.34-14.17-2.5-3.81-.13-7.62-.25-11.42-.39-.35,0-1.44-.13,0,.06l.59,4.57h0l-1.26.35h.08c3.22.09,3.22-4.91,0-5Z" transform="translate(-0.02 0.07)"/><path class="cls-2" d="M114.09,80a2.84,2.84,0,0,0,1.34-.34c1.8-.9,1.54-4.27-.59-4.57a44.52,44.52,0,0,0-4.62-.23l-7.83-.26-6.22-.21-2.06-.08c-.54,0,0,0,0,0l-.58-.11a9.82,9.82,0,0,1-1.06-.3c-.16,0-.32-.12-.48-.18s.28.12.26.11l-.33-.15c-.33-.17-.65-.34-1-.54-.15-.09-.3-.18-.44-.28s-.61-.45-.3-.21-.15-.12-.22-.19l-.47-.41c-.29-.27-.57-.56-.84-.85s-.5-.58-.76-.87c-.4-.47.19.26-.07-.1l-.46-.63a31.26,31.26,0,0,1-2.74-4.93c-.1-.21-.2-.43-.29-.64s-.11-.26-.17-.38.17.39.06.12c-.2-.49-.4-1-.59-1.47-.38-1-.75-2.06-1.08-3.11C79.54,49.83,78,40,76.39,30.3c-.76-4.53-1.52-9.06-2.47-13.55A56.51,56.51,0,0,0,70.78,6c-1-2.37-2.62-5-5.25-5.86s-5,.87-6.39,3.06a30.19,30.19,0,0,0-3.33,8.68c-1.08,4-1.89,8.1-2.66,12.18-1.71,9-3.1,18.18-5.34,27.12-.47,1.89-1,3.76-1.59,5.61-.27.81-.56,1.62-.87,2.41l-.21.52c0,.06.19-.42,0,.05l-.5,1.07a19.68,19.68,0,0,1-1,1.73c-.19.28-.67.81-.16.26-.2.21-.37.44-.57.65s-.37.3-.52.47c.17-.19.52-.32.17-.14a3.12,3.12,0,0,0-.35.2c-.5.36.56-.18,0,0a2.29,2.29,0,0,0-.28.07c-.37.18.65,0,.25,0-.62-.1-1.3,0-1.94-.08a13,13,0,0,1-1.71-.39A5.06,5.06,0,0,1,37.31,63c-.09-.05-.17-.12-.26-.18-.3-.21.29.26,0,0s-.37-.36-.56-.54c-.43-.42.09.18-.14-.16s-.27-.41-.39-.62-.2-.38-.3-.56-.07-.17-.11-.25c-.27-.53.13.34,0,0-.31-.79-.57-1.61-.86-2.41-.75-2-1.79-3.85-3.94-4.6a6.07,6.07,0,0,0-5.38.82c-4,2.66-6.82,7.11-9.64,10.86-3,4-6,8.28-10,11.68l-.25.21c-.29.24.31-.23,0,0s-.37.28-.57.41c-.36.24-.74.46-1.13.67l-.31.15c.06,0,.53-.19.12,0l-.54.18-.54.12c.49-.14.27,0-.08,0-3.22.06-3.22,5,0,5,.12,0,.69.06.26,0s.18,0,.28.08l.62.2c.07,0,.33.14,0,0s.1.06.17.1a11.58,11.58,0,0,1,1.13.67l.66.47c-.4-.3.19.16.32.27A41.68,41.68,0,0,1,11,91c3.31,4,6.36,8.56,9.87,12.7,2.48,2.92,6,6.75,10.26,5,2-.84,2.92-2.67,3.62-4.6.29-.78.53-1.57.84-2.34-.25.63.06-.09.12-.22l.3-.56c.11-.19.23-.36.35-.54s.3-.34-.05.05c.09-.09.16-.2.25-.28s.37-.37.57-.54c-.36.31.09-.06.25-.16s.45-.26.68-.38c.07,0,.43-.16.06,0l.48-.17a10.39,10.39,0,0,1,1.76-.36,9.06,9.06,0,0,0,1.81-.06c.13-.05-.63-.19-.25,0,.08,0,.21,0,.28.08.41.35-.57-.39.07,0,.35.24.52.51.1,0,.18.19.41.35.59.54s.32.39.5.58c-.61-.66.07.13.22.36a15.15,15.15,0,0,1,1,1.76c.15.31.29.62.44.94s0,0,0,0l.27.67c.31.81.6,1.62.86,2.44,2.73,8.38,4.08,17.21,5.65,25.87.8,4.44,1.6,8.88,2.56,13.29a70.2,70.2,0,0,0,2.87,10.47c.91,2.38,2.1,5.2,4.47,6.49s5.2.1,6.85-1.93c2-2.51,3.07-5.73,3.93-8.79,1.11-4,1.88-8.1,2.6-12.19,1.74-9.73,3.11-19.55,5.5-29.16.57-2.27,1.19-4.52,1.91-6.74.34-1,.7-2.08,1.09-3.1.18-.46.36-.92.55-1.37s-.16.37,0,0l.12-.28c.12-.28.24-.55.37-.83a30.54,30.54,0,0,1,2.76-4.89l.36-.49c.26-.36-.29.34.07-.09s.53-.63.81-.94.56-.57.85-.84,1.11-.89.5-.44A16.16,16.16,0,0,1,92,88.77c.56-.3-.26.07.07,0,.16-.06.32-.13.48-.18a9.77,9.77,0,0,1,1.06-.29l.58-.11c-.41.09-.38,0,0,0,.82,0,1.64-.07,2.46-.09l6.11-.21,10.82-.36c.43,0,.82-.05,1.27-.11,2.12-.3,2.4-3.67.59-4.57a2.72,2.72,0,0,0-1.34-.34c-3.21.09-3.22,5.09,0,5h.08l-1.26-.35h0l.6-4.57c1.3-.18.31-.07-.11-.06l-3.54.13-8,.26c-3.17.11-6.55-.13-9.66.56-7.66,1.71-11.52,10.16-13.87,16.82-3.22,9.15-4.77,18.85-6.38,28.39-.79,4.66-1.55,9.34-2.47,14a69.56,69.56,0,0,1-2.82,10.81c-.09.23-.56,1.32-.22.57-.14.32-.28.64-.43.95-.28.55-.59,1.08-.93,1.61s.25-.22-.13.19l-.56.58c-.49.5.37-.15-.07.06a1.4,1.4,0,0,0-.26.16c-.39.29,0-.14.22-.08,0,0-.22.09-.29.1-.35.05.05,0,.05,0s.45,0,0,0,.17,0,.33.06c-.25,0-.62-.29-.24,0s-.07-.13-.22-.17.46.46.2.13l-.19-.17c-.26-.29-.53-.75-.15-.13-.28-.47-.61-.9-.87-1.39-.13-.26-.26-.52-.38-.78s-.14-.33-.22-.49.21.54,0,0-.54-1.42-.78-2.14c-.54-1.67-1-3.37-1.41-5.08-1-4.21-1.85-8.49-2.64-12.76-1.65-8.94-3-18-5.43-26.78a41.27,41.27,0,0,0-3.68-9.71C47,95.74,45,93.59,42.11,93.42a12.32,12.32,0,0,0-8.34,2.49,11.84,11.84,0,0,0-3.35,5.42c-.13.37-.25.75-.39,1.12-.06.18-.12.36-.19.53s-.08.2-.11.3c-.11.28.29-.56,0-.11-.17.29-.34.58-.5.87.34-.61,0-.1,0,0s-.13.11-.15.13c.35-.4.34-.25.12-.12-.48.29.32-.26,0,0s-.87,0-.12,0a1.8,1.8,0,0,0-.52,0c.07,0,.59.16.11,0s-.19-.11.07.05c-.16-.09-.33-.16-.49-.26l-.38-.23c-.37-.24-.38-.29-.21-.15-3.71-3.15-6.13-6.93-9-10.71C15.52,88.53,12.28,84,7.94,80.83a9.84,9.84,0,0,0-5.5-2.08v5c4.6-.08,8.31-4.2,11.08-7.43,3.54-4.13,6.77-8.86,10-12.82.73-.9,1.47-1.78,2.26-2.62.33-.35.66-.69,1-1l.48-.45c.1-.08.7-.58.42-.36s.17-.12.26-.18l.44-.27c.14-.09.29-.14.43-.22-.58.35-.08.15,0,0s.19,0,.23-.05-.67.21-.34.05c.09,0,.75,0,.3,0s.3.05.29.08c.09-.18.53.83-.2-.1,0,.06.18.09.24.14.29.2-.42-.41,0,0s0-.09,0,0c.15.32.36.63.52.95-.21-.42-.1-.24,0,.05s.13.36.19.54l.45,1.28A11.44,11.44,0,0,0,34.28,67a12.31,12.31,0,0,0,7.87,2.1A6.51,6.51,0,0,0,46,67.4c2.22-1.91,3.44-5,4.42-7.63,3-8,4.29-16.71,5.81-25.09S59,17.91,61.6,9.92c.24-.72.52-1.42.78-2.13.15-.4-.26.56,0,0,.06-.14.12-.28.19-.42.14-.3.28-.6.44-.89s.26-.46.4-.69.77-.85.14-.24L64,5.1c.06-.08.16-.13.22-.21.25-.33-.53.39-.19.15s.89-.48-.05,0c.13-.06.76-.32.2-.1-.39.15-.25,0-.06,0,.51,0-.33.06-.31-.06s.93.33.28,0,.13.11.26.17c.39.2-.07,0-.18-.15.06.1.24.2.32.28s.32.35.49.52,0,.1-.1-.13c.09.14.2.28.3.41A16.37,16.37,0,0,1,66,7.59c.08.16.15.33.23.49s.27.63.1.22,0,.14.1.25l.21.57a47.28,47.28,0,0,1,1.51,5c1.07,4.2,1.83,8.48,2.57,12.75,1.68,9.71,3.09,19.51,5.64,29.05,2,7.53,4.78,16.51,11.47,21.23C92,80,97.24,79.45,102,79.61l11.42.38c.35,0,1.45.13.06-.06l-.6-4.57h0l1.26-.34h-.08c-3.22-.09-3.21,4.91,0,5Z" transform="translate(-0.02 0.07)"/><path class="cls-3" d="M100,69a8,8,0,0,1-2.79-.47A6.48,6.48,0,0,1,95,67.16a6.17,6.17,0,0,1-1.41-2,6.47,6.47,0,0,1-.5-2.59,6.34,6.34,0,0,1,.5-2.57,6.17,6.17,0,0,1,1.41-2,6.48,6.48,0,0,1,2.18-1.33,8.49,8.49,0,0,1,5.57,0,6.69,6.69,0,0,1,2.18,1.33,6.05,6.05,0,0,1,1.42,2,6.51,6.51,0,0,1,.5,2.57,6.64,6.64,0,0,1-.5,2.59,6.05,6.05,0,0,1-1.42,2,6.69,6.69,0,0,1-2.18,1.33A8,8,0,0,1,100,69Zm0-1.51a5.56,5.56,0,0,0,2.07-.37,5,5,0,0,0,1.64-1,4.41,4.41,0,0,0,1.06-1.56,5,5,0,0,0,.38-1.94,4.92,4.92,0,0,0-.38-1.93,4.41,4.41,0,0,0-1.06-1.56A4.88,4.88,0,0,0,102,58a6.13,6.13,0,0,0-4.14,0,4.79,4.79,0,0,0-2.7,2.6,4.92,4.92,0,0,0-.38,1.93,5,5,0,0,0,.38,1.94A4.72,4.72,0,0,0,96.26,66a4.9,4.9,0,0,0,1.63,1A5.56,5.56,0,0,0,100,67.45Zm4.73,1.09-3.62-3.34a.72.72,0,0,1,0-1.14.87.87,0,0,1,.61-.25.89.89,0,0,1,.62.25l3.62,3.36a.8.8,0,0,1,.27.56.69.69,0,0,1-.27.56.88.88,0,0,1-.61.26A.91.91,0,0,1,104.69,68.54Z" transform="translate(-0.02 0.07)"/><path class="cls-3" d="M115.33,69.05a7.14,7.14,0,0,1-2.94-.56,4.79,4.79,0,0,1-2-1.58,3.92,3.92,0,0,1-.71-2.3V57.13a.76.76,0,0,1,.26-.6.93.93,0,0,1,.64-.23,1,1,0,0,1,.65.23.82.82,0,0,1,.25.6v7.48a2.47,2.47,0,0,0,.49,1.52,3.33,3.33,0,0,0,1.37,1.05,5,5,0,0,0,2,.37,4.73,4.73,0,0,0,1.94-.37,3.14,3.14,0,0,0,1.31-1.05,2.52,2.52,0,0,0,.48-1.52V57.13a.79.79,0,0,1,.26-.6,1,1,0,0,1,.64-.23.9.9,0,0,1,.64.23.82.82,0,0,1,.25.6v7.48a3.92,3.92,0,0,1-.71,2.3,4.6,4.6,0,0,1-2,1.58A6.79,6.79,0,0,1,115.33,69.05Z" transform="translate(-0.02 0.07)"/><path class="cls-3" d="M123.25,68.8a.85.85,0,0,1-.74-.38.78.78,0,0,1-.05-.82l4.87-10.74a.87.87,0,0,1,.85-.56.85.85,0,0,1,.85.56l4.88,10.77a.78.78,0,0,1-.06.81.85.85,0,0,1-.75.36,1,1,0,0,1-.49-.14.76.76,0,0,1-.34-.37L128,58.43h.48l-4.36,9.86a.78.78,0,0,1-.36.38A.94.94,0,0,1,123.25,68.8Zm.92-2.75.7-1.38h6.79l.69,1.38Z" transform="translate(-0.02 0.07)"/><path class="cls-3" d="M136.86,68.8a.88.88,0,0,1-.63-.24A.78.78,0,0,1,136,68V57.13a.79.79,0,0,1,.25-.6.92.92,0,0,1,.63-.23.86.86,0,0,1,.69.31l7.56,9.28V57.13a.79.79,0,0,1,.26-.6,1,1,0,0,1,.64-.23.9.9,0,0,1,.64.23.79.79,0,0,1,.25.6V68a.78.78,0,0,1-.25.59.86.86,0,0,1-.64.24,1,1,0,0,1-.37-.07.74.74,0,0,1-.32-.22l-7.56-9.28V68a.78.78,0,0,1-.25.59A.9.9,0,0,1,136.86,68.8Z" transform="translate(-0.02 0.07)"/><path class="cls-3" d="M149.72,57.84a.84.84,0,0,1-.6-.22.72.72,0,0,1-.23-.55.73.73,0,0,1,.23-.55.89.89,0,0,1,.6-.22H159a.84.84,0,0,1,.59.22.71.71,0,0,1,.24.55.69.69,0,0,1-.24.55.8.8,0,0,1-.59.22Zm4.65,11a.89.89,0,0,1-.64-.24.75.75,0,0,1-.26-.59V56.3h1.8V68a.79.79,0,0,1-.26.59A.91.91,0,0,1,154.37,68.8Z" transform="translate(-0.02 0.07)"/><path class="cls-3" d="M167.49,69.05a7.22,7.22,0,0,1-3-.56,4.82,4.82,0,0,1-2-1.58,3.86,3.86,0,0,1-.72-2.3V57.13a.79.79,0,0,1,.26-.6,1,1,0,0,1,.64-.23.94.94,0,0,1,.65.23.79.79,0,0,1,.25.6v7.48a2.48,2.48,0,0,0,.5,1.52,3.27,3.27,0,0,0,1.37,1.05,5,5,0,0,0,2,.37,4.68,4.68,0,0,0,1.93-.37,3.23,3.23,0,0,0,1.32-1.05,2.52,2.52,0,0,0,.48-1.52V57.13a.76.76,0,0,1,.26-.6.93.93,0,0,1,.64-.23.91.91,0,0,1,.64.23.81.81,0,0,1,.24.6v7.48a3.91,3.91,0,0,1-.7,2.3,4.73,4.73,0,0,1-2,1.58A6.82,6.82,0,0,1,167.49,69.05Z" transform="translate(-0.02 0.07)"/><path class="cls-3" d="M177.37,68.8a.89.89,0,0,1-.64-.24.75.75,0,0,1-.26-.59V57.13a.76.76,0,0,1,.26-.6.93.93,0,0,1,.64-.23.89.89,0,0,1,.8.45l5.42,10H183l5.28-10a.89.89,0,0,1,.8-.45,1,1,0,0,1,.64.23.76.76,0,0,1,.26.6V68a.76.76,0,0,1-.27.59.92.92,0,0,1-.63.24.91.91,0,0,1-.64-.24.79.79,0,0,1-.26-.59V59.44l.35-.08L184,67.9a.92.92,0,0,1-.79.42.88.88,0,0,1-.83-.5l-4.49-8.3.35-.08V68a.79.79,0,0,1-.26.59A.91.91,0,0,1,177.37,68.8Z" transform="translate(-0.02 0.07)"/><path class="cls-3" d="M123.14,87a7,7,0,0,1-2.11-.32,5.37,5.37,0,0,1-1.75-.9,3.61,3.61,0,0,1-1.1-1.32.62.62,0,0,1,0-.63.91.91,0,0,1,.62-.37,1,1,0,0,1,1.07.55,2.14,2.14,0,0,0,.69.73,4,4,0,0,0,1.15.55,5.21,5.21,0,0,0,3,0,3,3,0,0,0,1.13-.7,1.56,1.56,0,0,0,.43-1.13,2.07,2.07,0,0,0-.71-1.52,4,4,0,0,0-2.37-.83,6.26,6.26,0,0,1-3.38-1.17,3,3,0,0,1-1.23-2.42,2.62,2.62,0,0,1,.64-1.79,4.07,4.07,0,0,1,1.74-1.12,7.6,7.6,0,0,1,2.46-.38,5.7,5.7,0,0,1,1.84.27,4.36,4.36,0,0,1,1.38.75,5.08,5.08,0,0,1,1,1.14.94.94,0,0,1,.2.66.66.66,0,0,1-.34.49.84.84,0,0,1-.71.08.94.94,0,0,1-.57-.42,2.83,2.83,0,0,0-.68-.78,3,3,0,0,0-.93-.5,3.73,3.73,0,0,0-1.27-.19,4.53,4.53,0,0,0-2.15.44,1.5,1.5,0,0,0-.86,1.4,1.72,1.72,0,0,0,.27.92,2,2,0,0,0,1,.76,6.54,6.54,0,0,0,2.07.45,5.77,5.77,0,0,1,3.22,1.16A3.17,3.17,0,0,1,128,83.34a3,3,0,0,1-.4,1.59,3.56,3.56,0,0,1-1.1,1.12,4.81,4.81,0,0,1-1.56.69A7.67,7.67,0,0,1,123.14,87Z" transform="translate(-0.02 0.07)"/><path class="cls-3" d="M131.67,86.8a.91.91,0,0,1-.64-.24.79.79,0,0,1-.26-.59V75.13a.79.79,0,0,1,.26-.6,1,1,0,0,1,.64-.23.94.94,0,0,1,.65.23.79.79,0,0,1,.25.6v4.6h8.05v-4.6a.79.79,0,0,1,.25-.6,1,1,0,0,1,.65-.23.93.93,0,0,1,.64.23.81.81,0,0,1,.24.6V86a.81.81,0,0,1-.24.59.89.89,0,0,1-.64.24.93.93,0,0,1-.65-.24.78.78,0,0,1-.25-.59V81.2h-8.05V86a.78.78,0,0,1-.25.59A.9.9,0,0,1,131.67,86.8Z" transform="translate(-0.02 0.07)"/><path class="cls-3" d="M146.77,86.8a.89.89,0,0,1-.64-.24.75.75,0,0,1-.26-.59V75.13a.76.76,0,0,1,.26-.6.93.93,0,0,1,.64-.23,1,1,0,0,1,.65.23.82.82,0,0,1,.25.6V86a.82.82,0,0,1-.25.59A.92.92,0,0,1,146.77,86.8Z" transform="translate(-0.02 0.07)"/><path class="cls-3" d="M150.94,86.8a.93.93,0,0,1-.64-.24A.79.79,0,0,1,150,86V75.13a.79.79,0,0,1,.26-.6,1,1,0,0,1,.64-.23h7.84a1,1,0,0,1,.64.22.72.72,0,0,1,.24.57.68.68,0,0,1-.24.54,1,1,0,0,1-.64.21h-6.93v3.89h5a.93.93,0,0,1,.64.21.76.76,0,0,1,0,1.11.93.93,0,0,1-.64.21h-5V86a.76.76,0,0,1-.27.59A.89.89,0,0,1,150.94,86.8Z" transform="translate(-0.02 0.07)"/><path class="cls-3" d="M161.33,75.84a.82.82,0,0,1-.6-.22.69.69,0,0,1-.24-.55.71.71,0,0,1,.24-.55.87.87,0,0,1,.6-.22h9.27a.89.89,0,0,1,.6.22.73.73,0,0,1,.23.55.72.72,0,0,1-.23.55.84.84,0,0,1-.6.22Zm4.64,11a.91.91,0,0,1-.64-.24.79.79,0,0,1-.26-.59V74.3h1.8V86a.75.75,0,0,1-.26.59A.89.89,0,0,1,166,86.8Z" transform="translate(-0.02 0.07)"/><path class="cls-3" d="M107,104.8a.89.89,0,0,1-.64-.24.75.75,0,0,1-.26-.59V93.13a.76.76,0,0,1,.26-.6.93.93,0,0,1,.64-.23h7.83a.94.94,0,0,1,.64.22.7.7,0,0,1,.25.57.66.66,0,0,1-.25.54.93.93,0,0,1-.64.21h-6.93v3.89h5a1,1,0,0,1,.64.21.76.76,0,0,1,0,1.11,1,1,0,0,1-.64.21h-5V104a.79.79,0,0,1-.26.59A.91.91,0,0,1,107,104.8Z" transform="translate(-0.02 0.07)"/><path class="cls-3" d="M118.9,104.8a.93.93,0,0,1-.64-.24A.79.79,0,0,1,118,104V93.13a.79.79,0,0,1,.26-.6,1,1,0,0,1,.64-.23.92.92,0,0,1,.65.23.79.79,0,0,1,.26.6V104a.79.79,0,0,1-.26.59A.88.88,0,0,1,118.9,104.8Z" transform="translate(-0.02 0.07)"/><path class="cls-3" d="M122.63,93.84a.84.84,0,0,1-.6-.22.72.72,0,0,1-.23-.55.73.73,0,0,1,.23-.55.89.89,0,0,1,.6-.22h9.27a.85.85,0,0,1,.6.22.71.71,0,0,1,.24.55.69.69,0,0,1-.24.55.81.81,0,0,1-.6.22Zm4.65,11a.89.89,0,0,1-.64-.24.76.76,0,0,1-.27-.59V92.3h1.81V104a.79.79,0,0,1-.26.59A.93.93,0,0,1,127.28,104.8Z" transform="translate(-0.02 0.07)"/><path class="cls-3" d="M135.61,104.8a.88.88,0,0,1-.63-.24.78.78,0,0,1-.25-.59V93.13a.79.79,0,0,1,.25-.6.92.92,0,0,1,.63-.23.9.9,0,0,1,.7.31l7.55,9.28V93.13a.79.79,0,0,1,.26-.6,1,1,0,0,1,.65-.23.93.93,0,0,1,.64.23.81.81,0,0,1,.24.6V104a.81.81,0,0,1-.24.59.89.89,0,0,1-.64.24,1.1,1.1,0,0,1-.38-.07.74.74,0,0,1-.32-.22l-7.56-9.28V104a.78.78,0,0,1-.25.59A.88.88,0,0,1,135.61,104.8Z" transform="translate(-0.02 0.07)"/><path class="cls-3" d="M150,104.8a.89.89,0,0,1-.64-.24.75.75,0,0,1-.26-.59V93.13a.76.76,0,0,1,.26-.6.93.93,0,0,1,.64-.23h7.83a.94.94,0,0,1,.64.22.7.7,0,0,1,.25.57.66.66,0,0,1-.25.54.93.93,0,0,1-.64.21h-6.93v3.89h5a.93.93,0,0,1,.64.21.74.74,0,0,1,0,1.11.93.93,0,0,1-.64.21h-5v4h6.93a.93.93,0,0,1,.64.21.66.66,0,0,1,.25.54.7.7,0,0,1-.25.57.89.89,0,0,1-.64.22Z" transform="translate(-0.02 0.07)"/><path class="cls-3" d="M165.55,105a7.07,7.07,0,0,1-2.12-.32,5.47,5.47,0,0,1-1.75-.9,3.58,3.58,0,0,1-1.09-1.32.62.62,0,0,1,0-.63.91.91,0,0,1,.61-.37,1,1,0,0,1,.62.09,1,1,0,0,1,.46.46,2.21,2.21,0,0,0,.68.73,4,4,0,0,0,1.16.55,5.17,5.17,0,0,0,3,0,2.94,2.94,0,0,0,1.14-.7,1.56,1.56,0,0,0,.43-1.13,2,2,0,0,0-.72-1.52,4,4,0,0,0-2.36-.83,6.23,6.23,0,0,1-3.38-1.17A3,3,0,0,1,161,95.45a2.63,2.63,0,0,1,.65-1.79,4,4,0,0,1,1.74-1.12,7.54,7.54,0,0,1,2.45-.38,5.73,5.73,0,0,1,1.85.27,4.59,4.59,0,0,1,1.38.75,5.08,5.08,0,0,1,1,1.14.94.94,0,0,1,.2.66.66.66,0,0,1-.34.49.84.84,0,0,1-.71.08.89.89,0,0,1-.57-.42,3,3,0,0,0-.68-.78,3.13,3.13,0,0,0-.94-.5,3.67,3.67,0,0,0-1.26-.19,4.51,4.51,0,0,0-2.15.44,1.49,1.49,0,0,0-.87,1.4,1.72,1.72,0,0,0,.27.92,2.07,2.07,0,0,0,1,.76,6.54,6.54,0,0,0,2.07.45,5.77,5.77,0,0,1,3.22,1.16,3.2,3.2,0,0,1,1.15,2.55,3,3,0,0,1-.41,1.59,3.43,3.43,0,0,1-1.09,1.12,5,5,0,0,1-1.56.69A7.73,7.73,0,0,1,165.55,105Z" transform="translate(-0.02 0.07)"/><path class="cls-3" d="M177.47,105a7,7,0,0,1-2.11-.32,5.37,5.37,0,0,1-1.75-.9,3.48,3.48,0,0,1-1.09-1.32.6.6,0,0,1,0-.63.93.93,0,0,1,.62-.37,1,1,0,0,1,.62.09,1,1,0,0,1,.45.46,2.14,2.14,0,0,0,.69.73,4,4,0,0,0,1.15.55,5.21,5.21,0,0,0,3,0,2.9,2.9,0,0,0,1.13-.7,1.57,1.57,0,0,0,.44-1.13,2,2,0,0,0-.72-1.52,4,4,0,0,0-2.37-.83,6.26,6.26,0,0,1-3.38-1.17,3,3,0,0,1-1.23-2.42,2.62,2.62,0,0,1,.64-1.79,4.07,4.07,0,0,1,1.74-1.12,7.6,7.6,0,0,1,2.46-.38,5.66,5.66,0,0,1,1.84.27,4.36,4.36,0,0,1,1.38.75,5.08,5.08,0,0,1,1,1.14.94.94,0,0,1,.2.66.66.66,0,0,1-.34.49.84.84,0,0,1-.71.08.94.94,0,0,1-.57-.42,3,3,0,0,0-.67-.78,3.13,3.13,0,0,0-.94-.5,3.73,3.73,0,0,0-1.27-.19,4.53,4.53,0,0,0-2.15.44,1.5,1.5,0,0,0-.86,1.4,1.72,1.72,0,0,0,.27.92,2,2,0,0,0,1,.76,6.55,6.55,0,0,0,2.08.45,5.77,5.77,0,0,1,3.21,1.16,3.17,3.17,0,0,1,1.15,2.55,3,3,0,0,1-.4,1.59,3.56,3.56,0,0,1-1.1,1.12,4.81,4.81,0,0,1-1.56.69A7.67,7.67,0,0,1,177.47,105Z" transform="translate(-0.02 0.07)"/></svg>